<?xml version="1.0" encoding="UTF-8"?>
<!DOCTYPE svg PUBLIC "-//W3C//DTD SVG 1.1//EN" "http://www.w3.org/Graphics/SVG/1.1/DTD/svg11.dtd">
<!-- Creator: CorelDRAW 2017 -->
<svg xmlns="http://www.w3.org/2000/svg" xml:space="preserve" width="6.46592in" height="1.8753in" version="1.1" style="shape-rendering:geometricPrecision; text-rendering:geometricPrecision; image-rendering:optimizeQuality; fill-rule:evenodd; clip-rule:evenodd"
viewBox="0 0 6800.36 1972.3"
 xmlns:xlink="http://www.w3.org/1999/xlink">

 <g id="Layer_x0020_1">
  <metadata id="CorelCorpID_0Corel-Layer"/>
  <path fill="#fff" d="M6303.97 953.22c-52.09,0 -102.22,8.32 -149.34,23.59 -0.59,-285.58 -226.16,-516.88 -504.43,-516.88 -94.59,0 -182.76,27.19 -258.38,73.65 -123.29,-312.81 -421.84,-533.58 -770.8,-533.58 -430.33,0 -784.26,335.57 -827.01,765.7 -224.78,92.11 -383.72,317.45 -383.72,581.06 0,335.46 257.28,609.22 580.3,624.8 2.45,0.19 4.82,0.75 7.33,0.75l2295.56 0c1.21,0 2.3,-0.29 3.5,-0.37 2.34,0.04 4.64,0.37 6.97,0.37 274.17,0 496.4,-228.11 496.4,-509.54 0.04,-281.43 -222.23,-509.54 -496.4,-509.54l0.01 0zm-5557.83 992.74l0 -638.23c0,-263.71 -95.1,-395.37 -285.29,-395.37 -105.7,0 -192.38,38.76 -260.42,116.31 -67.66,77.54 -101.68,173.36 -101.68,287.48l0 629.81 -98.75 0 0 -1097.24 98.75 0 0 199.69 4.38 0c80.1,-150.69 205.18,-226.03 375.25,-226.03 118.5,0 209.21,39.5 272.12,118.5 62.9,78.64 94.36,191.29 94.36,337.95l0 667.13 -98.75 0 0.01 0zm452.43 -544.23c0,150.69 34.75,268.46 104.61,353.32 69.49,84.85 164.95,127.28 286.38,127.28 122.53,0 242.48,-45.35 359.53,-136.06l0 104.97c-113.37,80.83 -240.3,121.06 -380.38,121.06 -141.18,0 -255.66,-50.84 -342.7,-152.15 -87.05,-101.31 -130.57,-244.31 -130.57,-429.38 0,-159.83 45.72,-294.43 136.79,-404.16 91.07,-109.36 209.21,-164.21 355.15,-164.21 136.42,0 241.02,47.92 313.81,143.37 72.78,95.82 109.36,226.39 109.36,392.08l0 43.89 -811.96 0 -0.01 -0zm708.82 -89.98c-4.38,-126.19 -34.75,-224.58 -91.07,-294.43 -56.33,-69.86 -134.23,-104.97 -233.35,-104.97 -102.77,0 -187.99,34.38 -255.3,103.51 -67.3,68.76 -108.99,167.52 -124.72,295.89l704.43 0 0 0zm815.61 660.54c-160.2,0 -286.75,-52.67 -380.01,-158 -93.27,-105.34 -139.72,-242.13 -139.72,-410.37 0,-182.15 48.64,-324.42 146.31,-427.2 97.28,-102.77 225.67,-154.34 385.13,-154.34 156.17,0 279.8,51.21 370.5,153.25 90.7,102.05 136.06,243.22 136.06,423.91 0,170.44 -46.08,308.69 -138.62,414.39 -92.53,105.7 -219.09,158.37 -379.65,158.37zm7.32 -1059.93c-129.11,0 -232.25,43.53 -308.69,130.57 -76.81,87.05 -115.21,208.11 -115.21,362.82 0,143.74 37.3,258.94 112.28,346 74.98,87.05 177.39,130.57 307.23,130.57 132.03,0 233.71,-42.79 305.03,-128.37 71.32,-85.58 107.16,-204.46 107.16,-356.61 0,-156.17 -35.47,-276.14 -106.44,-359.9 -70.96,-83.39 -171.53,-125.08 -301.38,-125.08l0.01 0zm1700.97 -154.53l25.69 0c2.3,0 4.38,0.94 5.89,2.44 1.5,1.5 2.44,3.6 2.44,5.89 0,2.29 -0.94,4.38 -2.44,5.89 -1.5,1.5 -3.6,2.44 -5.89,2.44l-25.69 0c-2.12,42.45 -20.24,80.75 -48.44,108.96 -28.21,28.21 -66.51,46.34 -108.96,48.45l0 25.69c0,2.3 -0.94,4.38 -2.44,5.89 -1.5,1.5 -3.6,2.44 -5.89,2.44 -2.3,0 -4.38,-0.94 -5.89,-2.44 -1.5,-1.5 -2.44,-3.6 -2.44,-5.89l0 -25.69c-42.45,-2.12 -80.75,-20.24 -108.96,-48.45 -28.21,-28.21 -46.34,-66.51 -48.44,-108.96l-25.69 0c-2.29,0 -4.38,-0.94 -5.89,-2.45 -1.5,-1.5 -2.45,-3.59 -2.45,-5.88 0,-2.3 0.94,-4.38 2.44,-5.89 1.5,-1.5 3.6,-2.44 5.89,-2.44l25.69 0c2.1,-42.45 20.24,-80.75 48.44,-108.96 28.21,-28.21 66.51,-46.34 108.96,-48.45l0 -25.69c0,-2.3 0.94,-4.38 2.44,-5.89 1.5,-1.5 3.6,-2.44 5.89,-2.44 2.29,0 4.38,0.94 5.89,2.44 1.52,1.52 2.45,3.61 2.45,5.89l0 25.69c42.45,2.12 80.75,20.24 108.96,48.45 28.21,28.21 46.34,66.51 48.45,108.96l-0.01 0zm-271.28 113.87c27.03,27.03 64.37,43.78 105.54,43.78 41.17,0 78.5,-16.75 105.54,-43.78 27.03,-27.03 43.78,-64.37 43.78,-105.54 0,-41.17 -16.75,-78.51 -43.78,-105.54 -27.03,-27.03 -64.37,-43.78 -105.54,-43.78 -41.17,0 -78.5,16.75 -105.54,43.78 -27.03,27.03 -43.78,64.37 -43.78,105.54 0,41.17 16.75,78.5 43.78,105.54zm105.54 -168.6c-34.77,0 -63.06,28.28 -63.06,63.06 0,34.77 28.29,63.06 63.06,63.06 34.77,0 63.06,-28.29 63.06,-63.06 0,-34.78 -28.29,-63.06 -63.06,-63.06zm33.78 67.56c-2.49,0 -4.5,-2.02 -4.5,-4.5 0,-16.14 -13.13,-29.28 -29.28,-29.28 -2.49,0 -4.5,-2.02 -4.5,-4.5 0,-2.49 2.02,-4.5 4.5,-4.5 21.11,0 38.29,17.18 38.29,38.29 0,2.48 -2.02,4.5 -4.5,4.5l-0.01 -0.01zm56.13 1048.01l-179.84 0 0 -793.43 179.84 0 0 793.43zm941.27 0l-179.58 0 0 -446.97c0,-148.37 -52.63,-222.42 -157.36,-222.42 -54.75,0 -99.98,20.37 -135.68,61.62 -35.7,41 -53.42,92.82 -53.42,155.25l0 452.51 -180.64 0 0 -793.43 180.64 0 0 131.71 3.18 0c59.24,-100.23 145.19,-150.23 257.07,-150.23 86.47,0 152.34,28.04 197.55,84.1 45.5,55.8 68.23,137.01 68.23,242.79l0 485.06 0 0.01zm637.65 -8.46c-34.91,17.45 -81.19,26.18 -138.57,26.18 -153.92,0 -230.89,-73.79 -230.89,-221.64l0 -448.54 -132.5 0 0 -140.97 132.5 0 0 -183.55 179.84 -51.3 0 234.85 189.62 0 0 140.97 -189.62 0 0 396.71c0,47.06 8.46,80.67 25.39,100.75 17.2,20.1 45.5,30.15 85.42,30.15 30.42,0 56.59,-8.72 78.8,-26.18l0 142.55 0 0.01z"/>
 </g>
</svg>
